<?xml version="1.0" encoding="UTF-8" standalone="no"?>
<svg
   xmlns:dc="http://purl.org/dc/elements/1.1/"
   xmlns:cc="http://creativecommons.org/ns#"
   xmlns:rdf="http://www.w3.org/1999/02/22-rdf-syntax-ns#"
   xmlns:svg="http://www.w3.org/2000/svg"
   xmlns="http://www.w3.org/2000/svg"
   xmlns:sodipodi="http://sodipodi.sourceforge.net/DTD/sodipodi-0.dtd"
   xmlns:inkscape="http://www.inkscape.org/namespaces/inkscape"
   inkscape:version="1.0beta2 (2b71d25, 2019-12-03)"
   sodipodi:docname="logo.svg"
   xml:space="preserve"
   viewBox="0 0 512 512"
   version="1.1"
   id="Layer_1"
   enable-background="new 0 0 512 512"><metadata
     id="metadata45"><rdf:RDF><cc:Work
         rdf:about=""><dc:format>image/svg+xml</dc:format><dc:type
           rdf:resource="http://purl.org/dc/dcmitype/StillImage" /><dc:title></dc:title></cc:Work></rdf:RDF></metadata><defs
     id="defs43" /><sodipodi:namedview
     inkscape:current-layer="Layer_1"
     inkscape:window-maximized="0"
     inkscape:window-y="0"
     inkscape:window-x="0"
     inkscape:cy="256"
     inkscape:cx="191.8463"
     inkscape:zoom="1.7421875"
     showgrid="false"
     id="namedview41"
     inkscape:window-height="1080"
     inkscape:window-width="1920"
     inkscape:pageshadow="2"
     inkscape:pageopacity="0"
     guidetolerance="10"
     gridtolerance="10"
     objecttolerance="10"
     borderopacity="1"
     inkscape:document-rotation="0"
     bordercolor="#666666"
     pagecolor="#ffffff" /><g
     id="g38"><g
       id="g24"><linearGradient
         y2="256"
         y1="256"
         x2="512"
         x1="-0.0000027"
         id="SVGID_1_"
         gradientUnits="userSpaceOnUse"><stop
           id="stop10"
           style="stop-color:#FFCA05"
           offset="0" /><stop
           id="stop12"
           style="stop-color:#FAAC18"
           offset="1" /></linearGradient><circle
         style="fill:#445500"
         id="circle15"
         r="256"
         fill="url(#SVGID_1_)"
         cy="256"
         cx="256" /><linearGradient
         y2="256.0005188"
         y1="256.0005188"
         x2="469.3333435"
         x1="42.6666641"
         id="SVGID_2_"
         gradientUnits="userSpaceOnUse"><stop
           id="stop17"
           style="stop-color:#FAAC18"
           offset="0" /><stop
           id="stop19"
           style="stop-color:#FFCA05"
           offset="1" /></linearGradient><path
         inkscape:connector-curvature="0"
         style="fill:#668000"
         id="path22"
         fill="url(#SVGID_2_)"
         d="m 256,469.33386 c -117.63152,0 -213.333344,-95.70239 -213.333344,-213.33334 0,-117.63146 95.701824,-213.333314 213.333344,-213.333314 117.63568,0 213.33334,95.701864 213.33334,213.333314 0,117.63095 -95.69766,213.33334 -213.33334,213.33334 z" /></g><g
       id="g30"><path
         id="path26"
         opacity="0.3"
         d="M144.0004883,157.6314697c0,65.7141266,0,131.4277344,0,197.1413269    c37.4351959-5.3589172,77.3504028,0.7514648,114.9978638,17.482666V175.1141357    C221.3514252,158.3824005,181.4351501,152.2741394,144.0004883,157.6314697z M242.0506287,337.3338623    c-25.3957367-11.9914551-52.2021332-16.410675-77.529068-12.7951965l-1.4160004-9.8976135    c27.2506561-3.9007874,56.0394592,0.8208008,83.212265,13.6501465L242.0506287,337.3338623z M242.0506287,297.2485352    c-25.3957367-11.9893494-52.2021332-16.4181213-77.529068-12.7951965l-1.4160004-9.8970642    c27.2506561-3.9040222,56.034668,0.8175964,83.212265,13.6495972L242.0506287,297.2485352z M242.0506287,257.163208    c-25.3957367-11.9893341-52.2021332-16.4133453-77.529068-12.7946777l-1.4160004-9.8975983    c27.2506561-3.9013367,56.0394592,0.8175964,83.212265,13.6495972L242.0506287,257.163208z M246.3178253,208.0330658    l-4.2671967,9.0431976c-25.4005432-11.9951935-52.1973419-16.4117279-77.529068-12.7930603l-1.4160004-9.8975983    C190.3562164,190.4890594,219.1402283,195.2010651,246.3178253,208.0330658z" /><path
         id="path28"
         opacity="0.3"
         d="M346.6826782,156.1461334v41.4837341v34.0981293l-22.6837769-17.0128021l-22.6826782,17.0128021    v-34.0981293v-34.0272064c-10.8794556,3.0106659-21.6928101,6.7904053-32.3178711,11.5120087v197.141861    c37.6474609-16.7322693,77.5647888-22.8426514,115.0010681-17.4837341c-0.0005493-65.7135925-0.0005493-131.4272003,0-197.1413269    C371.7732849,155.8821259,359.2719421,155.4794617,346.6826782,156.1461334z" /></g><g
       id="g36"><path
         id="path32"
         fill="#FFFFFF"
         d="M136.0004883,149.6314697c0,65.7141266,0,131.4277344,0,197.1413269    c37.4351959-5.3589172,77.3504028,0.7514648,114.9978638,17.482666V167.1141357    C213.3514252,150.3824005,173.4351501,144.2741394,136.0004883,149.6314697z M234.0506287,329.3338623    c-25.3957367-11.9914551-52.2021332-16.410675-77.529068-12.7951965l-1.4160004-9.8976135    c27.2506561-3.9007874,56.0394592,0.8208008,83.212265,13.6501465L234.0506287,329.3338623z M234.0506287,289.2485352    c-25.3957367-11.9893494-52.2021332-16.4181213-77.529068-12.7951965l-1.4160004-9.8970642    c27.2506561-3.9040222,56.034668,0.8175964,83.212265,13.6495972L234.0506287,289.2485352z M234.0506287,249.1631927    c-25.3957367-11.9893188-52.2021332-16.4133301-77.529068-12.7946625l-1.4160004-9.8975983    c27.2506561-3.9013367,56.0394592,0.8175964,83.212265,13.6495972L234.0506287,249.1631927z M238.3178253,200.0330658    l-4.2671967,9.0431976c-25.4005432-11.9951935-52.1973419-16.4117279-77.529068-12.7930603l-1.4160004-9.8975983    C182.3562164,182.4890594,211.1402283,187.2010651,238.3178253,200.0330658z" /><path
         id="path34"
         fill="#FFFFFF"
         d="M338.6826782,148.1461334v41.4837341v34.0981293l-22.6837769-17.0128021l-22.6826782,17.0128021    v-34.0981293v-34.0272064c-10.8794556,3.0106659-21.6928101,6.7904053-32.3178711,11.5120087v197.141861    c37.6474609-16.7322693,77.5647888-22.8426514,115.0010681-17.4837341c-0.0005493-65.7135925-0.0005493-131.4272003,0-197.1413269    C363.7732849,147.8821259,351.2719421,147.4794617,338.6826782,148.1461334z" /></g></g></svg>
